<?xml version="1.0" encoding="UTF-8"?>
<!-- Generated by Pixelmator Pro 3.0.1 -->
<svg width="32" height="32" viewBox="0 0 32 32" xmlns="http://www.w3.org/2000/svg" xmlns:xlink="http://www.w3.org/1999/xlink">
    <path id="Path" fill="#ffffff" stroke="none" d="M 21 19 C 20.826954 19.002327 20.654959 19.027306 20.4884 19.074301 L 18.707001 17.292999 L 18.681299 17.318701 C 19.10623 16.490913 19.10623 15.509087 18.681299 14.681301 L 18.707001 14.707001 L 20.4884 12.925701 C 21.379044 13.173737 22.324945 12.790058 22.791136 11.991661 C 23.257324 11.193266 23.126572 10.18092 22.472826 9.527174 C 21.819078 8.873428 20.806734 8.742676 20.008339 9.208864 C 19.209942 9.675053 18.826265 10.620956 19.074301 11.5116 L 17.292999 13.292999 L 17.318701 13.318699 C 16.490913 12.893772 15.509086 12.893772 14.6813 13.318699 L 14.707 13.292999 L 12.9257 11.5116 C 13.173736 10.620956 12.790057 9.675053 11.991662 9.208864 C 11.193266 8.742676 10.180921 8.873428 9.527174 9.527174 C 8.873428 10.18092 8.742675 11.193266 9.208864 11.991661 C 9.675054 12.790058 10.620955 13.173737 11.5116 12.925701 L 13.293 14.707001 L 13.3188 14.6812 C 12.893737 15.509024 12.893737 16.490976 13.3188 17.3188 L 13.293 17.292999 L 11.5116 19.074301 C 10.620955 18.826265 9.675054 19.209942 9.208864 20.008339 C 8.742675 20.806734 8.873428 21.819078 9.527174 22.472826 C 10.180921 23.126572 11.193266 23.257324 11.991662 22.791136 C 12.790057 22.324945 13.173736 21.379044 12.9257 20.4884 L 14.707 18.707001 L 14.6812 18.6812 C 15.509024 19.106264 16.490976 19.106264 17.3188 18.6812 L 17.292999 18.707001 L 19.074301 20.4884 C 18.857136 21.314789 19.190178 22.187738 19.902596 22.659479 C 20.615013 23.131222 21.54871 23.097069 22.22476 22.574541 C 22.90081 22.052013 23.169186 21.157066 22.892229 20.348751 C 22.615273 19.540434 21.854445 18.998129 21 19 Z M 16 17 C 15.447715 17 15 16.552284 15 16 C 15 15.447716 15.447715 15 16 15 C 16.552284 15 17 15.447716 17 16 C 16.999668 16.552147 16.552147 16.999668 16 17 Z"/>
    <path id="path1" fill="#ffffff" stroke="none" d="M 16 31 C 15.822976 31.000221 15.649074 30.953388 15.4961 30.8643 L 3.4961 23.8643 C 3.188853 23.68487 2.999972 23.355804 3 23 L 3 9 C 2.999864 8.644299 3.188797 8.315332 3.4961 8.1362 L 15.4961 1.1362 C 15.807477 0.95455 16.192522 0.95455 16.503901 1.1362 L 28.503901 8.1362 L 27.496099 9.8638 L 16 3.1577 L 5 9.5742 L 5 22.4258 L 16 28.8428 L 27 22.4258 L 27 15 L 29 15 L 29 23 C 29.000029 23.355804 28.811148 23.68487 28.503901 23.8643 L 16.503901 30.8643 C 16.350927 30.953388 16.177025 31.000221 16 31 Z"/>
</svg>
